<svg xmlns="http://www.w3.org/2000/svg" width="126" height="126" viewBox="0 0 126 126"><defs><style>.a{fill:#fff;}.b{fill:#c7c7c7;}</style></defs><g transform="translate(-236 -282)"><rect class="a" width="126" height="126" transform="translate(236 282)"/><path class="b" d="M63.9,81.793,6.213,66.345A8.471,8.471,0,0,1,.274,56.067L6.615,31.75a2.8,2.8,0,0,1,5.412,1.413L5.686,57.486a2.848,2.848,0,0,0,1.992,3.457l57.654,15.44a2.781,2.781,0,0,0,3.4-1.962L70.7,66.475a2.8,2.8,0,0,1,5.431,1.343L74.153,75.8A8.393,8.393,0,0,1,63.9,81.793ZM23.312,59.687a8.4,8.4,0,0,1-7.5-4.627,2.8,2.8,0,0,1-.784-2.414,8.409,8.409,0,0,1-.109-1.353V8.393A8.4,8.4,0,0,1,23.312,0H81.133a8.4,8.4,0,0,1,8.393,8.393v42.9a8.4,8.4,0,0,1-8.393,8.395Zm0-5.6H81.133a2.8,2.8,0,0,0,2.8-2.8v-4.7L66.021,25.7a1.114,1.114,0,0,0-.716-.333.937.937,0,0,0-.716.339L48.772,44.695a2.789,2.789,0,0,1-2.022,1,2.742,2.742,0,0,1-2.1-.816L37.969,38.2a.809.809,0,0,0-1.34,0L21.45,53.38A2.787,2.787,0,0,0,23.312,54.09Zm-2.8-45.7V46.4l12.16-12.161a6.545,6.545,0,0,1,9.251,0l4.511,4.509,13.854-16.63a6.531,6.531,0,0,1,4.984-2.354,6,6,0,0,1,5,2.295L83.93,37.991V8.393a2.8,2.8,0,0,0-2.8-2.8H23.312A2.8,2.8,0,0,0,20.514,8.393Zm5.6,10.26a7.461,7.461,0,1,1,7.461,7.461A7.469,7.469,0,0,1,26.11,18.653Zm5.6,0a1.865,1.865,0,1,0,1.865-1.865A1.866,1.866,0,0,0,31.705,18.653Z" transform="translate(254.237 303.552)"/></g></svg>